<svg xmlns="http://www.w3.org/2000/svg" xmlns:xlink="http://www.w3.org/1999/xlink" width="256" zoomAndPan="magnify" viewBox="0 0 192 56.249996" height="75" preserveAspectRatio="xMidYMid meet" version="1.0"><defs><g/></defs><g fill="#ffffff" fill-opacity="1"><g transform="translate(4.154303, 33.805915)"><g><path d="M 18.128906 4.125 C 17.449219 4.367188 16.324219 4.488281 15.640625 4.125 C 14.933594 3.734375 15.203125 2.660156 15.347656 2.023438 C 15.640625 0.707031 16.152344 -0.585938 16.667969 -1.855469 C 16.960938 -2.511719 17.226562 -3.195312 17.519531 -3.878906 C 17.59375 -4.027344 18.226562 -5.613281 18.203125 -5.613281 C 18.15625 -5.613281 18.082031 -5.539062 18.03125 -5.441406 C 18.886719 -7.222656 20.328125 -9.199219 19.9375 -11.324219 C 19.765625 -12.226562 19.132812 -13.128906 18.128906 -13.105469 C 17.277344 -13.105469 16.496094 -12.46875 15.910156 -11.933594 C 14.8125 -10.957031 13.910156 -9.808594 13.054688 -8.636719 C 12.957031 -8.515625 12.566406 -7.929688 12.128906 -7.246094 C 12.347656 -7.613281 12.640625 -7.957031 12.882812 -8.296875 C 11.859375 -6.855469 10.957031 -5.34375 10.078125 -3.832031 C 10.761719 -6.125 11.882812 -8.246094 12.835938 -10.417969 C 13.203125 -11.226562 13.8125 -11.957031 14.152344 -12.785156 C 14.519531 -13.691406 14.300781 -14.835938 13.691406 -15.59375 C 12.347656 -17.226562 10.417969 -14.398438 9.613281 -13.542969 C 7.980469 -11.8125 6.613281 -9.761719 5.34375 -7.785156 C 5.515625 -8.320312 5.613281 -8.832031 5.808594 -9.371094 C 6.050781 -10.054688 6.320312 -10.710938 6.539062 -11.394531 C 6.785156 -12.101562 7.003906 -12.835938 7.222656 -13.542969 C 7.441406 -14.25 7.6875 -15.203125 7.515625 -15.960938 C 7.394531 -16.496094 7.175781 -17.253906 6.785156 -17.667969 C 6.171875 -18.324219 5.320312 -18.277344 4.539062 -18.03125 C 3.832031 -17.8125 3.222656 -17.472656 2.660156 -17.007812 C 2.367188 -16.738281 2.097656 -16.472656 1.832031 -16.179688 L 1.585938 -15.835938 C 1.441406 -15.640625 1.464844 -15.445312 1.390625 -15.277344 C 1.148438 -14.738281 0.730469 -14.324219 0.5625 -13.738281 C 0.390625 -13.078125 0.339844 -12.152344 0.730469 -11.566406 C 0.925781 -11.296875 1.246094 -11.101562 1.539062 -11.347656 C 1.707031 -11.519531 1.636719 -11.6875 1.660156 -11.882812 C 1.683594 -12.03125 1.757812 -12.421875 1.855469 -12.664062 C 2.292969 -13.859375 2.953125 -15.054688 3.832031 -15.984375 C 4.195312 -16.398438 4.636719 -16.789062 5.171875 -16.933594 C 5.90625 -17.105469 5.929688 -16.519531 5.832031 -15.933594 L 5.6875 -15.03125 L 5.6875 -15.277344 C 4.976562 -12.640625 3.613281 -10.199219 2.683594 -7.664062 C 2.21875 -6.417969 1.683594 -5.246094 1.171875 -4.027344 C 0.660156 -2.804688 0.0742188 -1.367188 0 -0.0234375 C -0.0234375 0.4375 0.0742188 0.902344 0.4375 1.195312 C 0.855469 1.539062 1.488281 1.5625 1.804688 1.121094 C 2.050781 0.78125 2.171875 0.171875 2.316406 -0.21875 C 2.5625 -0.855469 2.78125 -1.488281 3.050781 -2.097656 C 3.292969 -2.757812 3.710938 -3.34375 4.074219 -3.953125 C 4.855469 -5.222656 5.636719 -6.492188 6.464844 -7.734375 C 7.246094 -8.929688 8.027344 -10.101562 8.882812 -11.226562 C 9.738281 -12.324219 10.589844 -13.445312 11.714844 -14.273438 C 11.882812 -14.398438 12.46875 -14.859375 12.714844 -14.761719 C 12.910156 -14.691406 12.714844 -14.324219 12.640625 -14.128906 C 12.226562 -13.007812 11.6875 -11.859375 11.078125 -10.835938 C 9.664062 -8.441406 8.199219 -5.757812 7.664062 -3 C 7.46875 -2.074219 7.46875 -1.148438 8.199219 -0.4375 C 8.957031 0.269531 9.222656 -0.339844 9.46875 -1.023438 C 9.664062 -1.585938 10.078125 -2.074219 10.371094 -2.585938 C 10.785156 -3.269531 11.175781 -3.976562 11.617188 -4.683594 C 11.882812 -5.074219 12.078125 -5.613281 12.394531 -5.90625 C 12.910156 -6.417969 13.273438 -7.003906 13.691406 -7.589844 C 14.542969 -8.808594 15.398438 -9.980469 16.496094 -10.980469 C 16.765625 -11.226562 17.375 -11.859375 17.789062 -11.761719 C 18.300781 -11.640625 17.742188 -10.835938 17.765625 -10.515625 L 17.9375 -10.859375 C 17.789062 -10.417969 17.644531 -10.003906 17.472656 -9.589844 C 17.449219 -9.613281 17.546875 -9.90625 17.546875 -9.90625 C 17.449219 -9.933594 16.933594 -8.761719 16.863281 -8.636719 C 16.496094 -7.882812 16.054688 -7.125 15.789062 -6.320312 C 15.519531 -5.589844 15.25 -4.90625 14.933594 -4.195312 L 14.398438 -2.976562 C 14.300781 -2.707031 14.007812 -2.121094 14.078125 -1.832031 C 14.105469 -1.832031 14.128906 -1.832031 14.128906 -1.855469 L 14.007812 -1.414062 C 14.03125 -1.511719 14.054688 -1.734375 14.054688 -1.757812 C 13.957031 -1.683594 13.933594 -1.195312 13.933594 -1.195312 C 13.347656 0.855469 13.105469 3.027344 14.519531 4.855469 C 15.203125 5.734375 16.007812 6.125 17.082031 5.832031 C 17.59375 5.710938 18.082031 5.464844 18.496094 5.125 C 18.742188 4.90625 19.496094 4.246094 19.398438 3.855469 C 19.328125 3.464844 18.375 4.050781 18.128906 4.125 Z M 14.886719 -3.195312 C 15.105469 -3.636719 15.300781 -4.097656 15.496094 -4.5625 C 15.640625 -4.929688 15.738281 -5.589844 15.984375 -5.882812 C 16.054688 -5.855469 16.054688 -5.785156 15.984375 -5.636719 C 15.8125 -4.757812 15.324219 -3.78125 14.933594 -2.953125 C 14.617188 -2.246094 14.300781 -1.511719 14.054688 -0.78125 C 14.300781 -1.585938 14.496094 -2.390625 14.886719 -3.195312 Z M 4.074219 -10.492188 C 4.417969 -11.296875 4.683594 -12.152344 5.027344 -12.957031 C 5.171875 -13.300781 5.34375 -13.691406 5.464844 -14.078125 C 5.171875 -12.933594 4.808594 -11.785156 4.269531 -10.6875 C 3.757812 -9.640625 3.292969 -8.566406 2.855469 -7.46875 C 3.246094 -8.492188 3.636719 -9.492188 4.074219 -10.492188 Z M 11.882812 -6.882812 C 11.25 -5.855469 10.566406 -4.808594 10.566406 -4.808594 C 10.640625 -4.78125 11.542969 -6.296875 11.882812 -6.882812 Z M 15.59375 -11.542969 L 14.691406 -10.589844 C 14.984375 -10.933594 15.277344 -11.25 15.59375 -11.542969 Z M 13.859375 0 C 13.789062 -0.0234375 13.789062 -0.0742188 13.859375 -0.171875 C 13.910156 -0.144531 13.910156 -0.0976562 13.859375 0 Z M 14.445312 -10.296875 L 14.496094 -10.371094 L 14.496094 -10.347656 C 14.542969 -10.445312 14.617188 -10.515625 14.640625 -10.542969 L 14.691406 -10.589844 L 14.640625 -10.515625 L 14.617188 -10.492188 L 14.566406 -10.445312 L 14.542969 -10.417969 C 14.542969 -10.417969 14.566406 -10.417969 14.566406 -10.445312 L 14.542969 -10.417969 L 14.519531 -10.371094 Z M 11.933594 -6.953125 L 12.03125 -7.101562 L 12.03125 -7.078125 Z M 11.882812 -6.882812 L 11.933594 -6.953125 C 11.933594 -6.929688 11.910156 -6.90625 11.882812 -6.882812 Z M 14.617188 -10.515625 L 14.640625 -10.542969 C 14.640625 -10.542969 14.640625 -10.515625 14.617188 -10.515625 Z M 14.617188 -10.515625 "/></g></g></g><g fill="#ffffff" fill-opacity="1"><g transform="translate(24.480521, 33.805915)"><g><path d="M 11.226562 -6.074219 C 11.226562 -6.074219 11.25 -6.050781 11.226562 -6.101562 C 11.101562 -6.269531 10.933594 -6.148438 10.761719 -6.101562 C 10.054688 -5.953125 9.320312 -5.785156 8.589844 -5.660156 C 8.859375 -6.539062 9.125 -7.46875 9.222656 -8.371094 C 9.273438 -8.710938 9.296875 -9.078125 9.222656 -9.417969 C 9.175781 -9.640625 9.101562 -9.859375 8.980469 -10.054688 C 8.980469 -10.054688 8.6875 -10.417969 8.761719 -10.222656 L 8.734375 -10.25 L 8.636719 -10.445312 L 8.734375 -10.347656 C 8.761719 -10.492188 8.34375 -10.761719 8.34375 -10.761719 C 7.734375 -11.371094 6.90625 -11.835938 6.074219 -11.371094 C 5.5625 -11.078125 5.148438 -10.589844 4.808594 -10.101562 C 4.683594 -9.933594 4.5625 -9.738281 4.464844 -9.542969 C 4.367188 -9.347656 4.222656 -8.710938 4.074219 -8.613281 C 3.953125 -8.515625 3.585938 -8.492188 3.417969 -8.394531 C 3.171875 -8.296875 2.953125 -8.175781 2.757812 -8.027344 C 2.292969 -7.734375 1.929688 -7.320312 1.585938 -6.90625 C 1 -6.125 0.707031 -5.246094 0.292969 -4.464844 C -0.488281 -2.976562 0.367188 -1.023438 1.804688 -0.316406 C 2.269531 -0.0976562 2.804688 0 3.292969 -0.046875 C 3.808594 -0.121094 4.292969 -0.390625 4.683594 -0.683594 C 5.050781 -0.953125 5.855469 -1.441406 6.003906 -1.855469 C 6.003906 -1.878906 5.953125 -1.855469 5.882812 -1.78125 L 6.589844 -2.609375 C 6.613281 -2.585938 6.417969 -2.34375 6.417969 -2.34375 C 6.589844 -2.269531 7.46875 -3.5625 7.566406 -3.660156 C 7.734375 -3.953125 7.90625 -4.269531 8.101562 -4.5625 C 8.273438 -4.78125 8.222656 -4.757812 8.46875 -4.855469 C 8.441406 -4.832031 8.761719 -4.929688 8.808594 -4.929688 C 9.078125 -4.976562 11.933594 -5.171875 11.226562 -6.074219 Z M 2.78125 -1.148438 L 2.757812 -1.148438 C 0.730469 -0.855469 3.074219 -5.148438 3.125 -5.394531 L 2.976562 -5.171875 C 3.34375 -5.90625 3.683594 -6.492188 3.855469 -6.6875 C 4.125 -5.464844 5.441406 -5.003906 6.515625 -4.855469 C 5.808594 -3.441406 4.488281 -1.464844 2.78125 -1.148438 Z M 7.589844 -7.90625 C 7.417969 -7.222656 7.273438 -6.320312 6.90625 -5.710938 C 6.785156 -5.464844 6.855469 -5.539062 6.613281 -5.492188 C 6.464844 -5.441406 6.148438 -5.492188 6.003906 -5.515625 C 5.734375 -5.539062 5.417969 -5.589844 5.222656 -5.757812 C 4.878906 -6.050781 4.929688 -6.515625 4.976562 -6.929688 C 5.027344 -7.34375 5.148438 -7.734375 5.296875 -8.125 C 5.367188 -8.273438 5.832031 -9.054688 5.757812 -9.199219 C 5.734375 -9.273438 5.464844 -8.832031 5.441406 -8.808594 C 5.589844 -9.078125 5.734375 -9.222656 5.855469 -9.394531 C 5.832031 -9.394531 5.855469 -9.417969 5.882812 -9.46875 L 5.882812 -9.445312 L 5.90625 -9.492188 C 5.90625 -9.492188 5.90625 -9.515625 5.929688 -9.515625 C 6.296875 -10.003906 7.199219 -11.101562 7.6875 -10.347656 C 8.050781 -9.710938 7.710938 -8.515625 7.589844 -7.90625 Z M 5.90625 -9.492188 L 5.929688 -9.515625 C 5.929688 -9.492188 5.90625 -9.492188 5.90625 -9.492188 Z M 5.90625 -9.492188 "/></g></g></g><g fill="#ffffff" fill-opacity="1"><g transform="translate(34.021391, 33.805915)"><g><path d="M 10.003906 -5.929688 C 9.859375 -6.5625 9.273438 -5.710938 9.152344 -5.5625 L 7.808594 -3.757812 L 6.492188 -2.023438 L 5.785156 -1.121094 C 5.710938 -1.023438 5.171875 -0.339844 5.222656 -0.339844 C 5.269531 -0.390625 5.34375 -0.390625 5.417969 -0.464844 C 5.050781 -0.0742188 3.710938 1.148438 3.464844 0.855469 C 3.269531 0.609375 3.808594 -0.414062 3.878906 -0.660156 C 4.148438 -1.367188 4.390625 -2.097656 4.683594 -2.78125 C 5.003906 -3.488281 5.367188 -4.195312 5.660156 -4.90625 C 5.953125 -5.660156 5.515625 -5.929688 4.808594 -6.101562 C 4.488281 -6.171875 4.097656 -6.171875 3.734375 -6.222656 C 3.734375 -6.199219 3.757812 -6.199219 3.757812 -6.199219 C 4.074219 -6.148438 4.539062 -6.125 4.929688 -6.003906 C 4.34375 -6.171875 3.613281 -6.101562 3.148438 -6.222656 C 2.832031 -6.296875 2.636719 -6.296875 2.683594 -6.660156 C 2.734375 -7.148438 3.246094 -7.664062 3.417969 -8.125 C 3.417969 -8.101562 3.246094 -7.664062 3.269531 -7.664062 C 3.390625 -7.613281 3.585938 -8.296875 3.585938 -8.394531 C 3.5625 -8.515625 3.269531 -8.882812 3.246094 -8.734375 L 3.292969 -8.664062 C 2.121094 -9.46875 0.730469 -7.808594 0.976562 -6.613281 C 1.023438 -6.441406 1.121094 -6.34375 1.195312 -6.148438 C 1.246094 -6.003906 1.195312 -5.832031 1.34375 -5.636719 C 1.855469 -5.003906 2.78125 -4.976562 3.515625 -5.125 C 3.390625 -4.953125 2.097656 -2.21875 2.171875 -2.195312 L 2 -1.585938 C 1.976562 -1.609375 2.074219 -1.804688 2.023438 -1.804688 C 1.855469 -1.832031 1.511719 -0.414062 1.488281 -0.292969 C 1.390625 0.292969 1.414062 0.804688 1.660156 1.34375 C 1.804688 1.683594 1.976562 1.976562 2.292969 2.171875 C 2.585938 2.367188 2.953125 2.464844 3.292969 2.390625 C 3.417969 2.34375 3.878906 2.023438 3.757812 2.050781 L 3.929688 1.976562 C 3.90625 2 3.878906 2.023438 3.878906 2.050781 C 3.953125 2.074219 5.074219 1.171875 5.222656 1.074219 C 6.003906 0.414062 6.636719 -0.390625 7.222656 -1.195312 C 7.808594 -2.023438 8.417969 -2.855469 8.980469 -3.683594 C 9.25 -4.074219 9.492188 -4.464844 9.6875 -4.878906 C 9.835938 -5.171875 10.078125 -5.589844 10.003906 -5.929688 Z M 2.707031 -3 C 2.878906 -3.441406 3.074219 -3.855469 3.292969 -4.269531 C 3.34375 -4.34375 3.683594 -5.222656 3.855469 -5.269531 C 3.734375 -5.199219 3.222656 -4 3.097656 -3.78125 L 2.636719 -2.707031 C 2.390625 -2.121094 2.121094 -1.511719 1.953125 -0.878906 C 2.121094 -1.609375 2.414062 -2.316406 2.707031 -3 Z M 2.121094 1.683594 C 2.269531 1.878906 2.464844 2.074219 2.734375 2.171875 C 2.511719 2.097656 2.316406 1.976562 2.171875 1.832031 C 2.195312 1.832031 2.195312 1.855469 2.195312 1.878906 C 2.050781 1.683594 1.855469 1.269531 1.832031 1.195312 C 1.757812 0.902344 1.734375 0.5625 1.757812 0.269531 C 1.757812 0.0234375 1.78125 -0.171875 1.832031 -0.390625 L 1.832031 -0.367188 C 1.78125 -0.046875 1.757812 0.269531 1.78125 0.609375 L 1.78125 0.730469 C 1.757812 0.707031 1.757812 0.683594 1.757812 0.683594 C 1.757812 0.683594 1.757812 0.707031 1.78125 0.757812 L 1.78125 0.78125 L 1.878906 1.292969 L 1.804688 0.976562 C 1.855469 1.121094 1.976562 1.390625 2.097656 1.660156 L 2.074219 1.636719 C 2.074219 1.660156 2.097656 1.683594 2.121094 1.707031 Z M 2.804688 -6.367188 C 2.929688 -6.269531 3.148438 -6.246094 3.367188 -6.222656 C 3.171875 -6.246094 3 -6.296875 2.878906 -6.394531 C 2.878906 -6.394531 2.734375 -6.515625 2.707031 -6.5625 C 2.707031 -6.515625 2.757812 -6.394531 2.804688 -6.367188 Z M 5.367188 -4.464844 L 4.855469 -3.390625 L 5.367188 -4.488281 Z M 1.855469 -0.464844 C 1.855469 -0.4375 1.832031 -0.414062 1.832031 -0.390625 L 1.832031 -0.414062 C 1.832031 -0.4375 1.855469 -0.4375 1.855469 -0.464844 Z M 5.394531 -4.539062 L 5.394531 -4.515625 L 5.367188 -4.515625 Z M 5.394531 -4.539062 L 5.394531 -4.515625 L 5.367188 -4.515625 Z M 1.878906 -0.78125 C 1.878906 -0.804688 1.902344 -0.828125 1.902344 -0.878906 C 1.902344 -0.828125 1.878906 -0.804688 1.878906 -0.78125 Z M 1.976562 1.464844 C 1.976562 1.464844 2 1.488281 2 1.511719 C 2 1.488281 1.976562 1.488281 1.976562 1.464844 Z M 2.734375 -6.613281 C 2.707031 -6.613281 2.707031 -6.589844 2.707031 -6.589844 Z M 2.734375 -6.613281 "/></g></g></g><g fill="#ffffff" fill-opacity="1"><g transform="translate(42.244603, 33.805915)"><g><path d="M 12.421875 -5.882812 C 12.394531 -6.417969 11.957031 -5.953125 11.8125 -5.757812 C 11.492188 -5.296875 11.199219 -4.808594 10.90625 -4.34375 C 10.25 -3.34375 9.589844 -2.34375 8.832031 -1.390625 C 6.320312 1.707031 8.078125 -3.808594 7.882812 -3.757812 C 7.785156 -3.734375 7.710938 -3.367188 7.6875 -3.292969 C 7.882812 -4.171875 8.246094 -5.222656 8.710938 -6.074219 C 8.980469 -6.613281 9.296875 -7.050781 8.808594 -7.636719 C 7.90625 -8.734375 6.855469 -7.734375 6.269531 -6.980469 C 6.027344 -7.90625 5.539062 -9.273438 4.34375 -9.273438 C 3.808594 -9.273438 3.488281 -9.003906 3.125 -8.6875 C 2.902344 -8.539062 2.734375 -8.515625 2.539062 -8.34375 C 2.21875 -8.125 2 -7.785156 1.78125 -7.492188 C 0.953125 -6.269531 0.367188 -4.734375 0.0976562 -3.320312 C -0.0234375 -2.636719 -0.0742188 -1.878906 0.121094 -1.195312 C 0.242188 -0.804688 0.683594 0.0742188 1.246094 0 C 1.269531 0 1.21875 -0.0234375 1.148438 -0.0742188 C 1.488281 0.0234375 1.878906 -0.0234375 2.171875 -0.21875 C 2.195312 -0.171875 1.902344 -0.046875 1.902344 -0.046875 C 2.171875 0.367188 4.171875 -2.050781 4.320312 -2.269531 C 4.636719 -2.707031 4.855469 -3.171875 5.148438 -3.636719 C 5.367188 -3.976562 5.710938 -4.417969 5.953125 -4.78125 C 5.929688 -4.613281 5.929688 -4.390625 5.929688 -4.390625 C 5.492188 -3 5.074219 -1.488281 5.660156 -0.046875 C 5.929688 0.683594 6.589844 1.367188 7.417969 1.21875 C 8.148438 1.097656 8.761719 0.390625 9.199219 -0.171875 C 9.738281 -0.804688 10.199219 -1.511719 10.664062 -2.246094 C 11.054688 -2.902344 11.421875 -3.5625 11.738281 -4.292969 C 11.933594 -4.757812 12.46875 -5.320312 12.421875 -5.882812 Z M 5.417969 -5.710938 C 5.296875 -5.539062 5.171875 -5.367188 5.074219 -5.199219 L 4.441406 -4.292969 C 4.027344 -3.683594 3.585938 -3.097656 3.125 -2.539062 C 3 -2.367188 2.414062 -1.609375 2.171875 -1.683594 C 1.804688 -1.804688 2.195312 -3.074219 2.246094 -3.269531 C 2.316406 -3.613281 3.613281 -7.371094 3.953125 -7.441406 C 3.515625 -7.46875 2.097656 -3.050781 2.023438 -2.683594 C 2.21875 -3.878906 2.660156 -5.050781 3.148438 -6.148438 C 3.417969 -6.710938 4.027344 -8.199219 4.832031 -8.199219 C 5.269531 -8.199219 5.367188 -7.296875 5.441406 -7.003906 C 5.417969 -7.050781 5.199219 -7.761719 5.171875 -7.734375 C 5.050781 -7.636719 5.539062 -6.296875 5.539062 -6.101562 C 5.539062 -5.90625 5.539062 -5.90625 5.417969 -5.710938 Z M 5.980469 -4.515625 C 5.980469 -4.515625 6.050781 -4.855469 6.074219 -4.929688 L 6.199219 -5.101562 Z M 5.613281 -6.027344 L 5.613281 -6.269531 C 5.6875 -6.171875 5.6875 -6.101562 5.613281 -6.027344 Z M 5.613281 -6.027344 "/></g></g></g><g fill="#ffffff" fill-opacity="1"><g transform="translate(52.88353, 33.805915)"><g><path d="M 11.910156 -5.832031 C 11.8125 -7.050781 10.054688 -4.855469 9.957031 -4.78125 C 9.664062 -4.539062 9.394531 -4.320312 9.054688 -4.148438 C 8.710938 -4 8.394531 -3.660156 8.050781 -3.613281 C 7.859375 -3.5625 7.371094 -3.539062 7.175781 -3.636719 C 6.757812 -3.855469 7.199219 -4.613281 7.320312 -4.953125 C 7.34375 -5.003906 7.246094 -4.976562 7.296875 -5.125 L 7.441406 -5.222656 L 7.882812 -5.6875 C 8.296875 -6.125 8.859375 -6.320312 9.296875 -6.710938 C 9.445312 -6.832031 9.542969 -6.929688 9.589844 -7.125 C 9.6875 -7.90625 8.589844 -7.929688 8.125 -7.613281 C 7.394531 -7.175781 6.929688 -6.464844 6.417969 -5.882812 L 5.613281 -5.050781 C 5.296875 -4.683594 4.855469 -4.367188 4.613281 -3.929688 C 4.515625 -3.78125 4.515625 -3.613281 4.367188 -3.441406 C 4.222656 -3.292969 4.050781 -3.148438 3.929688 -2.953125 C 3.636719 -2.585938 3.367188 -2.195312 3.097656 -1.804688 C 3.125 -2.050781 2.929688 -3.855469 2.832031 -4.855469 C 2.832031 -4.5625 2.855469 -4.246094 2.855469 -4.195312 L 2.804688 -4.929688 L 2.804688 -4.953125 C 2.757812 -5.367188 2.707031 -5.808594 2.585938 -6.222656 L 2.660156 -6.050781 C 2.683594 -6.027344 2.660156 -6.367188 2.636719 -6.441406 C 2.609375 -6.515625 2.488281 -6.492188 2.511719 -6.417969 C 2.441406 -6.5625 2.5625 -6.613281 2.414062 -6.785156 C 2.21875 -7.050781 1.832031 -7.027344 1.5625 -6.929688 C 1.34375 -6.855469 1.148438 -6.660156 1.050781 -6.589844 C 0.804688 -6.441406 0.5625 -6.394531 0.464844 -6.027344 C 0.390625 -5.734375 0.828125 -4.34375 0.757812 -4.222656 L 0.78125 -4.246094 C 0.804688 -4.148438 0.804688 -4.050781 0.804688 -3.976562 C 0.78125 -3.976562 0.78125 -4.027344 0.78125 -4.050781 C 0.78125 -4.050781 0.660156 -3.757812 0.660156 -3.710938 C 0.585938 -3.367188 0.660156 -3.171875 0.683594 -2.855469 C 0.730469 -2.585938 0.683594 -2.367188 0.683594 -2.097656 C 0.683594 -1.855469 0.730469 -1.78125 0.757812 -1.707031 C 0.730469 -1.757812 0.78125 -1.316406 0.78125 -1.316406 C 0.757812 -1.074219 0.585938 -0.78125 0.585938 -0.488281 C 0.535156 0.292969 0.488281 1.34375 1.148438 1.832031 C 1.609375 2.171875 2.269531 2.269531 2.636719 1.707031 C 2.78125 1.464844 2.832031 1.171875 2.855469 0.878906 C 3 0.121094 3.269531 -0.414062 3.683594 -1.074219 C 4.417969 -2.269531 5.441406 -3.148438 6.246094 -4.269531 C 6.171875 -1.832031 9.25 -2.660156 10.296875 -3.855469 C 10.46875 -4.027344 10.589844 -4.246094 10.761719 -4.417969 C 11.101562 -4.710938 11.421875 -5.027344 11.6875 -5.394531 C 11.785156 -5.515625 11.957031 -5.660156 11.910156 -5.832031 Z M 2.660156 -4.734375 C 2.636719 -4.148438 2.609375 -3.5625 2.539062 -3 C 2.5625 -3.464844 2.488281 -4 2.511719 -4.488281 C 2.539062 -4.90625 2.539062 -5.269531 2.488281 -5.6875 C 2.464844 -5.882812 2.441406 -6.074219 2.367188 -6.246094 C 2.34375 -6.34375 2.195312 -6.492188 2.195312 -6.589844 C 2.195312 -6.660156 2.414062 -6.34375 2.441406 -6.320312 C 2.511719 -6.199219 2.539062 -6.027344 2.5625 -5.882812 C 2.636719 -5.515625 2.683594 -5.125 2.660156 -4.734375 Z M 2.511719 -2.609375 C 2.488281 -2.609375 2.464844 -2.636719 2.488281 -2.707031 C 2.539062 -2.707031 2.539062 -2.683594 2.511719 -2.609375 Z M 2.878906 -3.222656 L 2.878906 -3.585938 C 2.902344 -3.464844 2.902344 -3.34375 2.878906 -3.222656 Z M 2.804688 -5.171875 L 2.804688 -5.539062 C 2.78125 -5.539062 2.804688 -5.394531 2.804688 -5.171875 Z M 2.832031 -4.878906 C 2.804688 -4.90625 2.804688 -4.90625 2.804688 -4.929688 L 2.804688 -4.976562 C 2.804688 -4.929688 2.832031 -4.90625 2.832031 -4.878906 Z M 2.832031 -4.878906 "/></g></g></g><g fill="#ffffff" fill-opacity="1"><g transform="translate(63.010037, 33.805915)"><g><path d="M 9.6875 -5.734375 C 9.613281 -6.074219 9.417969 -6.125 9.175781 -6.027344 C 8.710938 -5.808594 8.246094 -5.320312 7.808594 -5.027344 C 6.808594 -4.390625 5.808594 -3.878906 4.734375 -3.34375 C 4.734375 -3.367188 4.710938 -3.417969 4.683594 -3.488281 C 4.710938 -3.367188 4.683594 -3.320312 4.660156 -3.292969 C 4.417969 -4.34375 4.171875 -5.394531 3.976562 -6.464844 C 4.074219 -6.003906 4.292969 -5.222656 4.464844 -4.5625 C 4.246094 -5.589844 3.976562 -6.855469 4 -6.855469 C 3.953125 -6.832031 3.953125 -6.785156 3.953125 -6.734375 C 3.90625 -7.027344 3.832031 -7.394531 3.878906 -7.710938 C 3.90625 -8.078125 4.097656 -8.394531 4.222656 -8.734375 C 4.195312 -8.566406 4.148438 -8.34375 4.148438 -8.34375 C 4.292969 -8.320312 4.390625 -9.222656 4.390625 -9.320312 C 4.367188 -9.46875 4.050781 -9.933594 4.050781 -9.808594 C 3.390625 -10.417969 2.097656 -9.078125 1.902344 -8.492188 C 1.757812 -8.101562 1.757812 -7.6875 1.78125 -7.273438 C 1.804688 -6.855469 1.929688 -6.492188 2.050781 -6.101562 C 2.121094 -5.808594 2.023438 -5.613281 2.050781 -5.296875 C 2.097656 -4.808594 2.269531 -4.320312 2.367188 -3.855469 C 2.464844 -3.488281 2.78125 -2.757812 2.707031 -2.414062 C 2.660156 -2.074219 1.929688 -1.78125 1.609375 -1.585938 C 1.195312 -1.316406 0.78125 -1 0.367188 -0.683594 C -0.367188 -0.121094 -1.148438 0.585938 -1.441406 1.488281 C -1.488281 1.609375 -1.660156 2.148438 -1.488281 2.246094 C -1.464844 2.269531 -1.390625 1.855469 -1.367188 1.804688 C -1.683594 3.417969 -0.0976562 4.195312 1.390625 4.222656 C 3.074219 4.269531 4.246094 3.292969 4.832031 1.78125 C 5.074219 1.121094 5.148438 0.4375 5.125 -0.242188 C 5.125 -0.707031 5.074219 -1.148438 5.003906 -1.585938 C 4.953125 -1.976562 4.90625 -1.953125 5.171875 -2.171875 C 5.367188 -2.316406 5.660156 -2.414062 5.855469 -2.511719 C 6.636719 -2.929688 7.34375 -3.417969 8.050781 -3.929688 C 8.566406 -4.292969 9.785156 -4.929688 9.6875 -5.710938 Z M -0.171875 2.660156 C -0.804688 2.464844 -0.171875 1.464844 0.046875 1.148438 C 0.414062 0.660156 0.953125 0.292969 1.441406 -0.046875 L 2.171875 -0.535156 C 2.246094 -0.585938 2.707031 -0.953125 2.5625 -0.902344 L 2.855469 -1.074219 L 2.683594 -0.925781 C 2.734375 -0.953125 2.804688 -0.976562 2.855469 -1.023438 C 2.878906 -0.4375 2.878906 0.144531 2.707031 0.730469 C 2.683594 0.828125 2.21875 1.804688 2.023438 2 L 2.148438 1.902344 C 1.929688 2.171875 1.683594 2.390625 1.390625 2.5625 C 1.390625 2.539062 1.609375 2.390625 1.585938 2.367188 L 0.902344 2.636719 C 0.5625 2.707031 0.171875 2.78125 -0.171875 2.660156 Z M 2.902344 3.367188 C 2.269531 3.636719 1.660156 3.757812 1 3.78125 C 2.195312 3.710938 3.441406 3.125 4.148438 2.121094 C 3.878906 2.660156 3.539062 3.074219 2.902344 3.367188 Z M 4.683594 -3.5625 C 4.660156 -3.734375 4.613281 -3.976562 4.539062 -4.246094 C 4.585938 -3.976562 4.636719 -3.710938 4.683594 -3.5625 Z M 5.003906 -1.023438 C 4.976562 -1.050781 4.976562 -1.097656 4.976562 -1.148438 C 4.976562 -1.097656 5.003906 -1.050781 5.003906 -1.023438 Z M 5.003906 -1.023438 "/></g></g></g><g fill="#ffffff" fill-opacity="1"><g transform="translate(70.916036, 33.805915)"><g><path d="M 12.910156 -5.90625 C 12.882812 -6.34375 12.566406 -6.222656 12.347656 -6.027344 C 12.226562 -5.90625 10.640625 -4.148438 10.710938 -4.027344 C 10.761719 -4.027344 10.835938 -4.027344 10.882812 -4.074219 C 10.417969 -3.613281 9.6875 -3.171875 9.125 -2.757812 C 8.566406 -2.316406 7.929688 -1.511719 7.148438 -1.464844 C 7.078125 -1.464844 7.003906 -1.441406 6.90625 -1.464844 C 6.5625 -1.511719 5.734375 -3 5.660156 -3.320312 C 5.6875 -3.074219 6.246094 -1.976562 6.394531 -1.734375 C 5.832031 -2.367188 5.539062 -3.320312 5.394531 -4.171875 C 5.417969 -4.097656 5.464844 -4.027344 5.492188 -4.027344 C 5.5625 -4.050781 5.464844 -4.539062 5.464844 -4.5625 C 5.515625 -4.613281 5.882812 -4.710938 5.980469 -4.757812 C 6.515625 -4.976562 7.027344 -5.246094 7.539062 -5.539062 C 8.492188 -6.050781 9.445312 -6.660156 10.222656 -7.417969 C 11.078125 -8.273438 11.8125 -9.46875 10.6875 -10.445312 C 9.566406 -11.394531 7.980469 -10.125 7.125 -9.371094 C 6.296875 -8.636719 5.589844 -7.785156 4.929688 -6.90625 C 4.636719 -6.464844 4.320312 -6.050781 4.050781 -5.613281 C 3.878906 -5.367188 3.34375 -4.757812 3.390625 -4.464844 C 3.390625 -4.464844 3.855469 -5.027344 3.878906 -5.050781 C 3.710938 -4.808594 3.539062 -4.539062 3.390625 -4.269531 C 3.390625 -4.292969 3 -3.757812 2.953125 -3.660156 L 2.292969 -2.511719 C 2.5625 -3.660156 2.878906 -4.808594 3.222656 -5.953125 C 3.390625 -6.539062 3.539062 -6.882812 3.929688 -7.34375 C 4.269531 -7.761719 4.613281 -8.175781 4.929688 -8.589844 C 5.660156 -9.515625 6.320312 -10.515625 6.980469 -11.519531 C 7.46875 -12.25 7.832031 -13.203125 8.394531 -13.8125 C 9.078125 -14.617188 9.664062 -15.691406 10.003906 -16.714844 C 10.199219 -17.277344 10.125 -17.742188 9.859375 -18.300781 C 9.347656 -19.300781 8.320312 -20.203125 7.199219 -19.691406 C 6.269531 -19.277344 5.613281 -18.324219 5.125 -17.472656 C 4.808594 -16.933594 4.515625 -16.375 4.269531 -15.789062 L 3.78125 -14.761719 C 3.710938 -14.566406 3.636719 -14.25 3.5625 -14.078125 C 3.5625 -14.054688 3.539062 -14.03125 3.539062 -14.03125 C 3.34375 -13.542969 3.195312 -13.078125 3.027344 -12.589844 C 3 -12.617188 3.148438 -13.078125 3.148438 -13.078125 C 3.027344 -13.078125 2.636719 -11.910156 2.585938 -11.761719 C 2.367188 -11.175781 2.171875 -10.589844 1.976562 -9.980469 C 1.609375 -8.882812 1.316406 -7.761719 1.097656 -6.613281 C 0.902344 -5.367188 0.535156 -4.148438 0.269531 -2.929688 C 0.171875 -2.390625 0 -1.855469 0 -1.316406 C 0 -1.023438 0.046875 -0.707031 0.21875 -0.464844 C 0.269531 -0.414062 0.683594 -0.0742188 0.683594 -0.0976562 C 0.683594 -0.0976562 0.660156 -0.121094 0.660156 -0.144531 C 0.78125 -0.046875 1.023438 0.0234375 1.21875 0.046875 C 1.050781 0.046875 0.828125 0.0234375 0.78125 -0.046875 C 0.953125 0.195312 1.609375 0.0234375 1.660156 0.0234375 C 2.21875 -0.0976562 2.34375 -0.878906 2.636719 -1.316406 L 3.808594 -3.269531 C 3.90625 -2.757812 4.097656 -2.171875 4.34375 -1.734375 C 4.390625 -1.609375 5.101562 -0.632812 5.148438 -0.683594 C 5.148438 -0.707031 5.125 -0.757812 5.125 -0.78125 C 5.222656 -0.660156 5.320312 -0.5625 5.441406 -0.488281 C 5.417969 -0.464844 5.34375 -0.5625 5.320312 -0.511719 C 5.171875 -0.292969 6.222656 0.0742188 6.394531 0.0742188 C 6.734375 0.046875 7.027344 -0.195312 7.34375 -0.316406 C 7.613281 -0.4375 7.882812 -0.535156 8.125 -0.730469 C 8.417969 -0.976562 8.101562 -0.828125 8.296875 -0.976562 L 8.296875 -0.925781 C 8.371094 -1.023438 9.46875 -1.636719 9.515625 -1.683594 C 10.078125 -2.097656 10.515625 -2.660156 11.003906 -3.171875 C 11.421875 -3.585938 11.761719 -4.050781 12.101562 -4.488281 C 12.46875 -4.90625 12.957031 -5.246094 12.910156 -5.882812 Z M 7.613281 -17.8125 C 7.859375 -18.15625 8.566406 -19.007812 9.003906 -18.421875 C 9.445312 -17.839844 8.6875 -16.445312 8.417969 -15.886719 C 8.050781 -15.054688 7.589844 -14.25 7.125 -13.46875 L 6.464844 -12.394531 C 6.222656 -12.03125 5.90625 -11.6875 5.757812 -11.324219 C 5.855469 -11.492188 6.050781 -11.714844 6.171875 -11.859375 L 6.710938 -12.714844 C 7.125 -13.371094 7.515625 -14.03125 7.882812 -14.714844 C 8.078125 -15.03125 8.273438 -15.398438 8.492188 -15.789062 C 8.246094 -15.277344 7.980469 -14.789062 7.710938 -14.300781 C 6.636719 -12.347656 5.394531 -10.515625 4.050781 -8.761719 C 4.488281 -10.347656 4.953125 -11.933594 5.539062 -13.496094 C 6.101562 -14.957031 6.660156 -16.542969 7.613281 -17.8125 Z M 5.171875 -5.246094 C 5.980469 -6.367188 6.808594 -7.46875 7.761719 -8.46875 C 7.980469 -8.710938 9.199219 -10.101562 9.613281 -9.808594 C 10.003906 -9.515625 8.613281 -7.929688 8.417969 -7.710938 C 7.515625 -6.734375 6.417969 -5.734375 5.171875 -5.246094 Z M 5.320312 -14.007812 C 5.613281 -14.714844 5.882812 -15.445312 6.222656 -16.179688 C 6.246094 -16.277344 6.492188 -16.59375 6.613281 -16.8125 C 6.492188 -16.496094 6.125 -15.960938 6.074219 -15.8125 C 5.6875 -14.8125 5.394531 -13.789062 5.050781 -12.761719 C 4.660156 -11.542969 4.269531 -10.371094 3.953125 -9.152344 L 4 -9.347656 L 3.976562 -9.320312 C 3.976562 -9.347656 4 -9.347656 4 -9.371094 C 4.320312 -10.90625 4.710938 -12.542969 5.320312 -14.007812 Z M 3.5625 -14.078125 L 3.539062 -14.054688 C 3.5625 -14.054688 3.5625 -14.078125 3.5625 -14.078125 Z M 3.539062 -14.03125 L 3.539062 -14.054688 Z M 3.539062 -14.03125 "/></g></g></g><g fill="#ffffff" fill-opacity="1"><g transform="translate(82.04299, 33.805915)"><g><path d="M 14.226562 -5.832031 C 14.152344 -6.613281 13.398438 -5.855469 13.152344 -5.636719 C 12.738281 -5.296875 12.296875 -5.003906 11.882812 -4.660156 C 10.6875 -3.757812 9.566406 -2.804688 8.441406 -1.855469 C 8.90625 -3.171875 9.589844 -4.488281 10.320312 -5.6875 C 10.46875 -5.929688 10.589844 -6.148438 10.542969 -6.441406 C 10.417969 -7.101562 9.542969 -7.371094 8.957031 -7.273438 C 8.441406 -7.175781 8.394531 -6.929688 8.296875 -6.589844 C 8.101562 -5.980469 7.394531 -5.441406 6.980469 -4.976562 C 6.808594 -4.78125 5.660156 -3.390625 5.636719 -3.390625 C 5.710938 -3.390625 5.757812 -3.441406 5.808594 -3.464844 C 5.269531 -2.902344 4.441406 -2.316406 3.78125 -1.804688 C 3.515625 -1.585938 2.734375 -0.804688 2.316406 -0.953125 C 1.148438 -1.316406 3.5625 -6.003906 3.488281 -6.027344 C 3.417969 -6.050781 2.636719 -4.125 2.464844 -3.683594 C 2.855469 -4.878906 3.367188 -6.050781 3.90625 -7.175781 C 3.878906 -7.078125 3.808594 -6.882812 3.855469 -6.882812 C 3.929688 -6.855469 4.292969 -7.664062 4.222656 -7.6875 C 4.195312 -7.6875 4.171875 -7.664062 4.148438 -7.664062 C 4.222656 -7.761719 4.34375 -7.808594 4.390625 -7.957031 C 4.464844 -8.273438 4.097656 -8.613281 3.832031 -8.710938 C 3.246094 -8.957031 2.5625 -8.613281 2.292969 -8.050781 C 2.21875 -7.957031 2.148438 -7.785156 2.097656 -7.734375 C 2.023438 -7.589844 1.902344 -7.539062 1.804688 -7.394531 C 1.539062 -6.929688 1.390625 -6.394531 1.195312 -5.90625 C 1.121094 -5.6875 0.269531 -3.246094 0.390625 -3.222656 L 0.4375 -3.269531 C 0.390625 -3.097656 0.367188 -2.902344 0.339844 -2.734375 C 0.292969 -2.757812 0.367188 -2.902344 0.316406 -2.902344 C 0.0742188 -2.929688 -0.0234375 -1.367188 0 -1.195312 C 0.046875 -0.707031 0.367188 -0.0976562 0.828125 0.144531 C 1.050781 0.269531 1.34375 0.316406 1.609375 0.269531 C 1.707031 0.269531 2.171875 0.0742188 2 0.0742188 L 2.148438 0.0234375 L 2.097656 0.0742188 C 2.121094 0.0976562 3 -0.292969 3.148438 -0.339844 C 3.855469 -0.632812 4.464844 -1.195312 4.976562 -1.734375 L 6.589844 -3.34375 C 6.953125 -3.710938 7.273438 -4.269531 7.664062 -4.5625 C 7.441406 -3.878906 7.222656 -3.195312 7.027344 -2.511719 C 6.757812 -1.707031 6.613281 -0.707031 6.222656 0.0234375 C 5.90625 0.609375 5.101562 1.148438 4.636719 1.609375 C 3.976562 2.21875 3.320312 2.832031 2.707031 3.464844 C 1.855469 4.367188 1.097656 5.394531 0.339844 6.394531 C -0.4375 7.441406 -1.511719 8.929688 -0.535156 10.199219 C 0.121094 11.101562 1.34375 11.664062 2.441406 11.371094 C 3.441406 11.128906 3.832031 10.296875 4.320312 9.515625 C 5.882812 6.929688 6.734375 3.929688 7.636719 1.074219 C 7.785156 0.660156 7.882812 -0.0742188 8.125 -0.414062 C 8.371094 -0.757812 8.859375 -1.050781 9.152344 -1.316406 C 9.882812 -1.976562 10.640625 -2.609375 11.394531 -3.222656 L 13.519531 -4.90625 C 13.835938 -5.148438 14.273438 -5.367188 14.226562 -5.832031 Z M 3.734375 6.832031 L 3.734375 6.855469 L 3.636719 7.050781 L 3.636719 7.078125 C 3.613281 7.078125 3.613281 7.101562 3.613281 7.101562 C 3.613281 7.125 3.585938 7.175781 3.585938 7.175781 C 3.34375 7.734375 3.050781 8.296875 2.734375 8.832031 C 2.464844 9.273438 2.097656 9.980469 1.585938 10.152344 C 0.609375 10.492188 0.535156 8.882812 0.683594 8.34375 C 1.050781 7.027344 2.023438 5.882812 2.855469 4.832031 C 3.710938 3.734375 4.613281 2.734375 5.636719 1.78125 C 5.050781 3.464844 4.464844 5.171875 3.734375 6.832031 Z M 5.148438 6.492188 C 5.246094 6.199219 5.417969 5.882812 5.589844 5.589844 C 5.441406 6.027344 5.320312 6.464844 5.050781 6.90625 L 4.832031 7.296875 C 4.929688 7.027344 5.027344 6.734375 5.148438 6.492188 Z M 5.980469 3.832031 L 5.539062 4.90625 C 5.589844 4.683594 5.636719 4.441406 5.734375 4.292969 C 5.832031 4.074219 6.027344 3.683594 5.980469 3.417969 C 6.003906 3.539062 6.027344 3.710938 5.980469 3.832031 Z M 5.199219 5.90625 L 5.296875 5.757812 C 5.269531 5.808594 5.246094 5.855469 5.199219 5.90625 Z M 9.347656 -10.808594 C 9.320312 -10.859375 9.273438 -11.175781 9.222656 -11.25 C 9.054688 -11.519531 8.785156 -11.617188 8.539062 -11.6875 C 8.515625 -11.6875 8.222656 -11.761719 8.101562 -11.738281 C 7.808594 -11.714844 7.929688 -11.589844 7.859375 -11.445312 L 6.953125 -9.882812 C 6.832031 -9.664062 6.34375 -8.6875 6.589844 -8.515625 C 6.734375 -8.394531 7.101562 -8.664062 7.199219 -8.734375 C 7.613281 -9.054688 8.148438 -9.445312 8.515625 -9.859375 C 8.589844 -9.933594 9.492188 -10.738281 9.347656 -10.808594 Z M 9.347656 -10.808594 "/></g></g></g><g fill="#000000" fill-opacity="1"><g transform="translate(94.496604, 33.805915)"><g/></g></g><g fill="#5e17eb" fill-opacity="1"><g transform="translate(101.331256, 33.805915)"><g><path d="M 22.402344 -17.324219 C 22.375 -17.375 22.402344 -17.351562 22.402344 -17.351562 C 22.277344 -17.667969 21.863281 -18.15625 21.472656 -18.082031 C 21.179688 -18.03125 21.277344 -17.910156 21.15625 -17.765625 C 20.667969 -17.179688 20.105469 -16.667969 19.644531 -16.082031 C 18.421875 -14.542969 17.375 -12.859375 16.324219 -11.199219 C 15.277344 -9.542969 14.300781 -7.882812 13.496094 -6.101562 C 13.152344 -5.34375 12.6875 -4.660156 12.324219 -3.929688 C 11.8125 -2.929688 11.371094 -1.878906 10.933594 -0.855469 C 10.933594 -0.902344 10.980469 -2.023438 10.90625 -1.976562 C 10.859375 -1.929688 10.835938 -1.902344 10.835938 -1.878906 C 10.882812 -2.414062 11.078125 -3.074219 11.175781 -3.660156 C 11.324219 -4.515625 11.394531 -5.367188 11.46875 -6.222656 C 11.519531 -6.492188 11.957031 -9.152344 12.226562 -10.46875 C 12.054688 -9.808594 11.859375 -8.882812 11.8125 -8.785156 C 12.03125 -9.933594 12.273438 -11.078125 12.664062 -12.199219 C 12.640625 -12.101562 12.640625 -12.003906 12.6875 -12.003906 C 12.761719 -12.003906 13.03125 -12.785156 12.957031 -12.8125 L 12.859375 -12.738281 C 12.957031 -12.957031 13.152344 -12.980469 13.128906 -13.347656 C 13.105469 -13.691406 12.933594 -14.007812 12.664062 -14.226562 C 12.46875 -14.421875 12.101562 -14.640625 11.8125 -14.566406 C 11.542969 -14.496094 11.566406 -14.347656 11.46875 -14.226562 C 10.542969 -13.054688 9.417969 -11.785156 8.515625 -10.492188 C 8.222656 -10.101562 8.078125 -9.6875 7.785156 -9.273438 C 7.246094 -8.589844 6.757812 -7.859375 6.199219 -7.199219 C 5.636719 -6.492188 5.320312 -5.757812 4.808594 -5.050781 L 3.515625 -3.195312 C 3.953125 -4.808594 4.222656 -6.441406 4.539062 -8.078125 C 4.613281 -8.492188 5.417969 -12.933594 5.417969 -12.933594 C 5.394531 -12.933594 4.90625 -10.347656 4.832031 -10.078125 C 5.101562 -11.492188 5.394531 -12.957031 5.539062 -14.398438 C 5.539062 -14.421875 5.515625 -13.957031 5.539062 -13.984375 C 5.660156 -13.984375 5.710938 -15.007812 5.613281 -14.984375 C 5.589844 -14.957031 5.5625 -14.933594 5.5625 -14.910156 C 5.5625 -15.128906 5.6875 -15.300781 5.6875 -15.617188 C 5.660156 -16.128906 5.589844 -16.617188 5.367188 -17.082031 C 5.199219 -17.449219 4.953125 -17.839844 4.539062 -17.910156 C 4.441406 -17.9375 4.417969 -17.863281 4.292969 -17.886719 C 4.171875 -17.886719 4.148438 -17.984375 4.027344 -17.984375 C 3.488281 -17.960938 3.074219 -17.449219 2.878906 -17.007812 C 2.609375 -16.496094 2.292969 -14.738281 3.417969 -15.496094 C 3.417969 -15.375 3.34375 -14.203125 3.320312 -14.128906 C 3.367188 -14.152344 3.367188 -14.203125 3.390625 -14.25 C 3.367188 -14.007812 3.34375 -13.789062 3.292969 -13.566406 C 3.269531 -13.59375 3.320312 -13.761719 3.269531 -13.761719 C 3.050781 -13.761719 2.832031 -11.640625 2.832031 -11.371094 C 2.804688 -10.882812 2.707031 -10.445312 2.585938 -9.957031 C 2.539062 -9.738281 2.488281 -9.515625 2.464844 -9.296875 C 2.441406 -9.273438 2.414062 -8.710938 2.488281 -8.859375 C 2.488281 -8.808594 2.464844 -8.785156 2.464844 -8.734375 C 2.441406 -8.761719 2.441406 -8.785156 2.441406 -8.808594 C 2.414062 -8.785156 2.292969 -8.003906 2.269531 -7.980469 C 2.148438 -7.566406 1.976562 -7.199219 1.855469 -6.785156 C 1.585938 -5.808594 1.441406 -4.808594 1.195312 -3.832031 C 1.832031 -5.757812 2.414062 -7.808594 2.832031 -9.785156 C 3.148438 -11.371094 3.585938 -13.078125 3.710938 -14.714844 C 3.585938 -12.714844 3.195312 -10.6875 2.707031 -8.785156 C 2.414062 -7.613281 2.097656 -6.441406 1.78125 -5.269531 C 1.464844 -4.074219 0.925781 -2.929688 0.632812 -1.707031 C 0.488281 -1.148438 0.367188 -0.707031 0.171875 -0.144531 C -0.0234375 0.414062 -0.171875 1.023438 0.4375 1.390625 C 1.074219 1.757812 2.21875 1.609375 2.539062 0.878906 C 2.585938 0.757812 2.609375 0.632812 2.636719 0.511719 C 2.855469 -0.195312 3.34375 -0.828125 3.710938 -1.464844 C 4.367188 -2.609375 5.050781 -3.757812 5.808594 -4.855469 C 6.589844 -6.050781 7.394531 -7.199219 8.125 -8.417969 C 8.46875 -8.980469 8.980469 -9.46875 9.371094 -10.003906 L 10.296875 -11.199219 C 10.25 -11.078125 9.957031 -9.738281 9.933594 -9.738281 C 9.957031 -9.738281 9.957031 -9.761719 9.980469 -9.761719 C 9.933594 -9.613281 9.90625 -9.445312 9.882812 -9.296875 C 9.835938 -9.296875 9.90625 -9.445312 9.859375 -9.445312 C 9.542969 -9.492188 9.347656 -7.441406 9.347656 -7.296875 C 9.296875 -6.90625 9.175781 -6.515625 9.101562 -6.125 C 9.027344 -5.808594 9.078125 -5.539062 9.078125 -5.320312 C 9.054688 -5.367188 9.054688 -5.050781 9.027344 -4.976562 C 9.003906 -4.710938 8.929688 -4.613281 8.859375 -4.367188 C 8.664062 -3.808594 8.613281 -3.148438 8.589844 -2.585938 C 8.566406 -1.511719 8.441406 -0.339844 8.589844 0.707031 C 8.6875 1.539062 9.492188 2.246094 10.347656 2.171875 C 10.808594 2.121094 10.90625 1.929688 11.003906 1.539062 C 11.078125 1.195312 11.25 0.855469 11.421875 0.488281 C 12.03125 -0.804688 12.640625 -2.121094 13.324219 -3.367188 C 13.761719 -4.171875 14.007812 -4.976562 14.445312 -5.734375 C 15.03125 -6.757812 15.59375 -7.785156 16.226562 -8.761719 C 16.519531 -9.222656 16.738281 -9.6875 16.933594 -10.152344 C 17.203125 -10.738281 17.714844 -11.25 18.082031 -11.785156 C 18.496094 -12.371094 18.863281 -12.957031 19.328125 -13.542969 C 19.742188 -14.054688 20.253906 -14.566406 20.59375 -15.128906 C 20.742188 -15.375 20.644531 -15.375 20.863281 -15.59375 C 21.011719 -15.738281 21.230469 -15.910156 21.425781 -16.054688 C 21.816406 -16.375 22.597656 -16.691406 22.402344 -17.324219 Z M 11.566406 -7.882812 C 11.542969 -7.808594 11.617188 -7.980469 11.6875 -8.148438 C 11.6875 -8.175781 11.714844 -8.199219 11.714844 -8.222656 C 11.640625 -7.882812 11.566406 -7.613281 11.519531 -7.320312 C 11.519531 -7.492188 11.492188 -7.636719 11.566406 -7.882812 Z M 12.445312 -11.175781 C 12.421875 -11.175781 12.371094 -11.054688 12.324219 -10.808594 C 12.371094 -11.03125 12.445312 -11.175781 12.445312 -11.175781 Z M 12.445312 -11.175781 "/></g></g></g><g fill="#5e17eb" fill-opacity="1"><g transform="translate(117.850884, 33.805915)"><g><path d="M 9.347656 -6.027344 C 9.347656 -6.003906 9.347656 -6.003906 9.320312 -6.027344 L 9.320312 -6.050781 C 8.929688 -6.710938 8.417969 -5.808594 8.199219 -5.492188 C 7.785156 -4.929688 7.394531 -4.390625 6.953125 -3.878906 C 6.589844 -3.441406 6.199219 -3 5.90625 -2.539062 C 5.90625 -2.488281 5.855469 -2.367188 5.855469 -2.367188 C 5.757812 -2.21875 5.613281 -2.097656 5.492188 -1.953125 C 5.269531 -1.734375 5.050781 -1.488281 4.808594 -1.269531 C 4.441406 -0.925781 2.390625 1 2.121094 -0.242188 C 1.976562 -0.855469 2.171875 -1.609375 2.292969 -2.195312 C 2.367188 -2.511719 2.441406 -2.804688 2.488281 -3.125 C 2.539062 -3.367188 2.464844 -3.613281 2.585938 -3.855469 C 2.660156 -4 2.683594 -3.976562 2.855469 -4.027344 L 3.269531 -4.171875 C 3.539062 -4.269531 3.808594 -4.367188 4.050781 -4.515625 C 4.417969 -4.734375 4.757812 -5.003906 5.074219 -5.269531 C 5.832031 -5.90625 6.636719 -6.660156 6.953125 -7.613281 C 7.125 -8.148438 7.148438 -8.734375 6.808594 -9.199219 C 6.492188 -9.613281 5.953125 -9.835938 5.464844 -9.933594 C 4.148438 -10.175781 3.148438 -9.417969 2.390625 -8.417969 C 1.464844 -7.273438 0.804688 -5.855469 0.488281 -4.417969 C 0.316406 -3.710938 0.21875 -3 0.0976562 -2.269531 C -0.0234375 -1.539062 -0.0976562 -0.855469 0.292969 -0.171875 C 0.269531 -0.414062 0.21875 -0.632812 0.21875 -0.855469 C 0.21875 -0.976562 0.269531 -1.097656 0.269531 -1.195312 C 0.269531 -1.246094 0.21875 -1.390625 0.21875 -1.464844 C 0.21875 -1.683594 0.269531 -1.855469 0.316406 -2.074219 C 0.339844 -2.292969 0.316406 -2.511719 0.339844 -2.734375 C 0.367188 -2.976562 0.464844 -3.171875 0.5625 -3.390625 C 0.632812 -3.585938 0.660156 -3.757812 0.730469 -3.953125 C 0.804688 -4.125 0.855469 -4.320312 0.925781 -4.515625 C 0.953125 -4.636719 1.074219 -4.78125 1.148438 -4.929688 C 1.074219 -4.710938 0.925781 -4.515625 0.878906 -4.320312 C 0.804688 -4.027344 0.855469 -3.710938 0.828125 -3.417969 C 0.78125 -3.097656 0.683594 -2.78125 0.632812 -2.441406 C 0.585938 -2.121094 0.4375 -1.832031 0.390625 -1.511719 C 0.339844 -1.21875 0.242188 -1 0.269531 -0.707031 C 0.269531 -0.535156 0.292969 -0.367188 0.316406 -0.21875 C 0.339844 -0.0234375 0.464844 0.0976562 0.585938 0.242188 C 1 0.730469 1.5625 1.121094 2.195312 1.292969 C 2.636719 1.414062 3.027344 1.390625 3.441406 1.171875 C 4.027344 0.855469 4.539062 0.367188 4.976562 -0.0976562 C 5.394531 -0.5625 5.710938 -1.074219 6.074219 -1.5625 C 6.417969 -2 6.832031 -2.414062 7.175781 -2.855469 L 8.492188 -4.5625 L 9.25 -5.5625 C 9.371094 -5.710938 9.445312 -5.832031 9.347656 -6.027344 Z M 3.292969 -5.757812 C 3.320312 -5.808594 3.320312 -5.832031 3.320312 -5.832031 C 3.683594 -6.613281 3.953125 -7.441406 4.464844 -8.199219 L 4.90625 -8.785156 C 5.003906 -8.90625 5.171875 -9.125 5.34375 -9.175781 C 5.710938 -9.25 5.808594 -8.613281 5.785156 -8.371094 L 5.6875 -7.859375 C 5.660156 -7.710938 5.710938 -7.613281 5.6875 -7.492188 C 5.636719 -7.34375 5.515625 -7.273438 5.441406 -7.148438 L 5.027344 -6.613281 C 4.464844 -5.953125 3.757812 -5.394531 2.976562 -4.976562 C 3.097656 -5.246094 3.171875 -5.515625 3.292969 -5.757812 Z M 3.292969 -5.757812 "/></g></g></g><g fill="#5e17eb" fill-opacity="1"><g transform="translate(125.439659, 33.805915)"><g><path d="M 12.394531 -5.980469 L 12.394531 -6.003906 L 12.371094 -6.003906 C 12.078125 -6.417969 11.640625 -5.757812 11.347656 -5.539062 C 10.710938 -5.027344 10.054688 -4.613281 9.371094 -4.171875 C 9.394531 -4.292969 9.394531 -5.613281 9.320312 -5.5625 C 9.273438 -5.492188 9.273438 -5.417969 9.273438 -5.34375 C 9.222656 -6.125 9.101562 -7.125 8.148438 -7.417969 C 7.785156 -7.539062 7.441406 -7.441406 7.101562 -7.296875 C 6.148438 -6.855469 5.34375 -5.929688 4.660156 -5.199219 C 4.074219 -4.5625 3.539062 -3.878906 3.050781 -3.171875 C 3.320312 -3.515625 3.613281 -3.832031 3.855469 -4.097656 C 3.320312 -3.417969 2.804688 -2.683594 2.414062 -1.902344 L 2.511719 -2.292969 L 2.464844 -2.171875 C 2.660156 -3.488281 2.902344 -4.808594 3.195312 -6.101562 C 3.320312 -6.710938 3.390625 -7.613281 3.710938 -8.148438 C 3.953125 -8.589844 4.710938 -8.636719 4.976562 -9.078125 C 4.976562 -9.078125 4.90625 -9.027344 4.808594 -8.980469 C 5.148438 -9.25 5.464844 -9.542969 5.785156 -9.808594 C 5.785156 -9.785156 5.539062 -9.542969 5.539062 -9.542969 C 5.710938 -9.417969 7.078125 -10.859375 7.199219 -11.003906 C 7.785156 -11.617188 8.34375 -12.273438 8.785156 -13.03125 C 9.175781 -13.714844 9.613281 -14.371094 9.980469 -15.054688 C 10.222656 -15.445312 10.417969 -15.835938 10.613281 -16.25 C 10.738281 -16.542969 11.078125 -17.15625 11.003906 -17.496094 C 10.980469 -17.519531 10.957031 -17.519531 10.933594 -17.496094 L 11.078125 -18.082031 C 11.078125 -18.082031 11.03125 -17.617188 11.003906 -17.59375 C 11.128906 -17.691406 11.101562 -18.203125 11.101562 -18.203125 C 11.394531 -19.59375 11.394531 -22.375 9.417969 -22.472656 C 8.394531 -22.5 7.566406 -21.570312 6.980469 -20.863281 C 6.296875 -20.007812 5.710938 -19.058594 5.199219 -18.082031 C 4.246094 -16.398438 3.515625 -14.59375 2.78125 -12.8125 C 1.953125 -10.761719 1.21875 -8.636719 0.730469 -6.492188 C 0.414062 -5.222656 0.171875 -3.953125 0.0742188 -2.660156 C 0.046875 -2.34375 -0.171875 -0.609375 0.269531 -0.4375 C 0.269531 -0.414062 0.269531 -0.511719 0.242188 -0.660156 C 0.269531 -0.535156 0.316406 -0.464844 0.367188 -0.367188 C 0.339844 -0.367188 0.488281 0 0.488281 0 C 0.609375 0.21875 0.78125 0.4375 1 0.585938 C 1.414062 0.878906 1.976562 1.023438 2.269531 0.535156 C 2.511719 0.144531 2.609375 -0.511719 2.832031 -0.953125 C 2.902344 -1.148438 3 -1.34375 3.097656 -1.539062 C 3.074219 -1.660156 3.097656 -1.757812 3.195312 -1.832031 C 3.246094 -1.804688 3.292969 -1.832031 3.367188 -1.878906 C 3.734375 -2.292969 3.953125 -2.855469 4.246094 -3.34375 C 4.367188 -3.539062 5.953125 -5.636719 6.148438 -5.734375 C 6.125 -5.734375 6.101562 -5.734375 6.074219 -5.710938 C 6.222656 -5.855469 6.34375 -5.953125 6.515625 -6.074219 C 6.539062 -6.027344 6.394531 -5.953125 6.417969 -5.929688 C 6.417969 -5.929688 7.296875 -6.246094 7.394531 -6.246094 C 7.710938 -6.171875 7.664062 -5.660156 7.636719 -5.417969 C 7.589844 -5.050781 7.417969 -4.710938 7.246094 -4.390625 C 7.148438 -4.195312 6.980469 -3.976562 6.929688 -3.78125 C 6.929688 -3.757812 6.785156 -3.367188 6.929688 -3.539062 L 6.855469 -3.417969 C 6.785156 -3.292969 6.320312 -2.683594 6.222656 -2.609375 C 5.808594 -2.21875 5.492188 -1.757812 5.101562 -1.367188 C 4.613281 -0.878906 3.515625 -0.660156 4.246094 0.242188 C 5.5625 1.855469 7.589844 -0.683594 8.296875 -1.707031 C 8.6875 -2.292969 9.175781 -2.804688 9.589844 -3.292969 C 9.738281 -3.464844 10.003906 -3.683594 10.199219 -3.808594 C 10.273438 -3.855469 10.394531 -3.855469 10.46875 -3.929688 C 10.664062 -4.125 10.6875 -4.222656 10.859375 -4.390625 C 11.175781 -4.710938 11.714844 -4.808594 12.003906 -5.171875 C 12.054688 -5.246094 12.054688 -5.296875 11.980469 -5.367188 C 12.003906 -5.417969 12.054688 -5.417969 12.101562 -5.394531 L 12.25 -5.464844 C 12.371094 -5.636719 12.542969 -5.734375 12.394531 -5.980469 Z M 9.664062 -21.375 C 10.445312 -21.375 10.347656 -19.328125 10.320312 -18.886719 C 10.273438 -18.179688 10.101562 -17.472656 9.859375 -16.8125 C 9.6875 -16.300781 9.492188 -15.519531 9.175781 -15.105469 C 8.539062 -14.273438 7.832031 -13.324219 7.148438 -12.46875 C 6.269531 -11.371094 5.222656 -10.445312 4.125 -9.566406 C 4.5625 -11.03125 5.074219 -12.492188 5.636719 -13.933594 C 5.785156 -14.273438 7.199219 -17.984375 7.394531 -18.15625 C 7.34375 -18.128906 7.296875 -18.082031 7.246094 -18.007812 C 7.664062 -18.910156 8.101562 -19.816406 8.734375 -20.621094 L 8.417969 -20.035156 C 8.664062 -20.328125 9.613281 -21.402344 9.664062 -21.328125 C 9.640625 -21.375 9.46875 -21.328125 9.394531 -21.277344 C 9.46875 -21.351562 9.566406 -21.375 9.664062 -21.375 Z M 4.855469 -16.910156 C 5.417969 -17.984375 6.003906 -18.984375 6.757812 -19.960938 C 7.246094 -20.621094 7.957031 -21.402344 8.832031 -21.695312 C 7.980469 -21.402344 7.394531 -20.644531 6.882812 -19.9375 C 6.171875 -18.960938 5.589844 -17.9375 4.976562 -16.886719 C 4.050781 -15.300781 3.320312 -13.617188 2.683594 -11.933594 C 3.292969 -13.617188 4 -15.300781 4.855469 -16.910156 Z M 6.464844 -2.390625 C 6.050781 -1.832031 5.441406 -1.121094 4.832031 -0.78125 C 5.148438 -0.976562 5.394531 -1.34375 5.710938 -1.707031 C 6.148438 -2.269531 6.5625 -2.832031 6.980469 -3.417969 C 7.175781 -3.683594 7.734375 -4.683594 7.90625 -5.464844 C 7.734375 -4.367188 7.050781 -3.292969 6.464844 -2.390625 Z M 4 -9.46875 L 4 -9.515625 L 4.027344 -9.566406 C 4.027344 -9.589844 4.050781 -9.613281 4.050781 -9.664062 C 4.050781 -9.6875 4.050781 -9.710938 4.074219 -9.738281 L 4.074219 -9.761719 L 4.390625 -10.761719 L 4.269531 -10.320312 C 4.222656 -10.125 4.148438 -9.589844 4 -9.46875 Z M 5.101562 -12.761719 C 5.492188 -13.789062 5.882812 -14.8125 6.296875 -15.8125 Z M 2.539062 -2.316406 L 3.050781 -3.171875 C 2.855469 -2.902344 2.660156 -2.609375 2.539062 -2.316406 Z M 4 -9.46875 L 4 -9.515625 L 4.027344 -9.542969 C 4.027344 -9.515625 4 -9.492188 4 -9.46875 Z M 4.5625 -4.976562 C 4.5625 -4.953125 4.539062 -4.953125 4.539062 -4.953125 Z M 4.5625 -4.976562 "/></g></g></g><g fill="#5e17eb" fill-opacity="1"><g transform="translate(136.102992, 33.805915)"><g><path d="M 14.421875 -5.953125 L 14.421875 -5.980469 C 14.273438 -6.785156 13.175781 -5.441406 13.03125 -5.320312 C 12.324219 -4.539062 11.664062 -3.683594 11.03125 -2.832031 C 10.394531 -1.953125 9.785156 -1.074219 9.125 -0.195312 C 8.808594 0.242188 8.492188 0.660156 8.125 1.050781 C 8.003906 1.195312 7.710938 1.609375 7.492188 1.609375 C 6.636719 1.609375 7.296875 -1.832031 7.394531 -2.367188 C 7.539062 -3.320312 7.613281 -4.585938 8.222656 -5.34375 C 8.371094 -5.539062 10.027344 -7.664062 10.027344 -7.664062 C 9.980469 -7.6875 9.785156 -7.441406 9.664062 -7.296875 L 10.710938 -8.710938 L 10.785156 -8.808594 L 10.808594 -8.808594 L 10.785156 -8.808594 L 10.980469 -9.078125 C 11.003906 -9.054688 10.980469 -9.003906 10.957031 -8.957031 L 11.175781 -9.199219 L 11.8125 -10.027344 C 12.273438 -10.6875 12.714844 -11.394531 13.128906 -12.078125 C 13.789062 -13.203125 14.691406 -14.8125 14.203125 -16.179688 C 13.835938 -17.179688 12.492188 -17.375 11.589844 -17.03125 C 10.933594 -16.789062 10.371094 -16.277344 9.90625 -15.738281 C 9.664062 -15.421875 9.417969 -15.082031 9.199219 -14.714844 C 9.125 -14.617188 8.808594 -13.835938 8.734375 -13.738281 L 8.761719 -13.738281 C 8.613281 -13.46875 8.46875 -13.203125 8.371094 -12.933594 C 8.417969 -13.128906 8.539062 -13.519531 8.636719 -13.59375 C 8.441406 -13.445312 8.273438 -12.738281 8.222656 -12.664062 C 7.296875 -10.640625 6.492188 -8.589844 5.90625 -6.441406 C 5.246094 -7.199219 4.195312 -8.492188 3.050781 -8.027344 C 2.097656 -7.636719 1.390625 -6.636719 0.902344 -5.757812 C 0.464844 -4.976562 0.339844 -4.171875 0.0234375 -3.417969 C -0.535156 -2.121094 -0.804688 0.535156 1.097656 0.925781 C 1.683594 1.050781 2.21875 0.683594 2.683594 0.367188 C 3.515625 -0.242188 4.292969 -0.953125 5.027344 -1.683594 C 4.90625 -0.390625 4.636719 1.5625 5.6875 2.585938 C 6.980469 3.90625 8.273438 2.121094 9.054688 1.148438 C 10.054688 -0.121094 10.835938 -1.539062 11.835938 -2.757812 C 12.324219 -3.34375 12.8125 -3.929688 13.324219 -4.464844 C 13.714844 -4.855469 14.496094 -5.34375 14.421875 -5.953125 Z M 5.441406 -4.34375 C 5.417969 -4.269531 5.417969 -4.222656 5.417969 -4.222656 C 5.320312 -3.636719 5.320312 -3.125 4.90625 -2.707031 C 4.539062 -2.316406 4.148438 -1.953125 3.757812 -1.585938 C 3.390625 -1.246094 2.511719 -0.242188 1.953125 -0.292969 C 1.269531 -0.367188 1.78125 -1.929688 2.121094 -2.878906 C 1.757812 -1.902344 1.171875 -0.316406 1.976562 -0.269531 C 2.195312 -0.242188 2.5625 -0.4375 2.878906 -0.707031 C 2.585938 -0.4375 2.097656 -0.0742188 1.804688 -0.21875 C 1.246094 -0.464844 1.734375 -1.855469 1.832031 -2.246094 C 2.148438 -3.367188 2.609375 -4.441406 3.148438 -5.464844 C 3.417969 -5.980469 3.808594 -6.808594 4.320312 -6.855469 L 4.195312 -6.785156 C 4.222656 -6.808594 4.246094 -6.808594 4.269531 -6.808594 C 4.441406 -6.855469 4.613281 -6.734375 4.734375 -6.636719 C 5.050781 -6.417969 5.246094 -6.003906 5.464844 -5.6875 C 5.710938 -5.296875 5.539062 -4.878906 5.441406 -4.441406 Z M 9.371094 -9.980469 C 9.371094 -10.003906 9.371094 -10.054688 9.394531 -10.078125 L 9.394531 -10.101562 C 9.417969 -10.175781 9.445312 -10.199219 9.445312 -10.199219 L 9.445312 -10.222656 C 10.003906 -11.785156 10.613281 -13.347656 11.492188 -14.761719 C 11.714844 -15.128906 12.347656 -16.25 12.910156 -15.933594 C 13.128906 -15.8125 13.175781 -15.496094 13.175781 -15.277344 C 13.273438 -13.8125 12.101562 -12.078125 11.371094 -10.90625 C 10.515625 -9.542969 9.566406 -8.199219 8.566406 -6.953125 L 9.101562 -7.515625 L 9.589844 -8.125 L 8.34375 -6.515625 L 8.175781 -6.296875 L 8.078125 -6.199219 C 8.101562 -6.34375 8.222656 -6.492188 8.34375 -6.660156 C 8.296875 -6.613281 8.246094 -6.5625 8.222656 -6.515625 C 8.539062 -7.566406 8.882812 -8.613281 9.25 -9.664062 C 9.222656 -9.640625 9.25 -9.6875 9.273438 -9.785156 L 9.347656 -9.90625 C 9.347656 -9.933594 9.347656 -9.957031 9.371094 -9.980469 Z M 7.320312 -7.980469 C 7.273438 -7.859375 7.125 -7.296875 7.050781 -7.222656 C 7.050781 -7.199219 7.027344 -7.175781 7.003906 -7.175781 C 7.199219 -7.417969 7.078125 -7.734375 7.175781 -8.027344 C 7.222656 -8.175781 7.46875 -8.441406 7.515625 -8.636719 C 7.515625 -8.441406 7.394531 -8.101562 7.320312 -7.980469 Z M 3.441406 -1.21875 C 4.050781 -1.757812 4.636719 -2.316406 5.199219 -2.902344 C 5.148438 -2.585938 4.390625 -2.050781 4.125 -1.804688 C 3.808594 -1.488281 3.441406 -1.171875 3.074219 -0.878906 L 3.050781 -0.878906 Z M 7.761719 -10.199219 C 7.664062 -9.90625 7.539062 -9.640625 7.394531 -9.371094 C 7.515625 -9.738281 7.589844 -10.101562 7.761719 -10.445312 C 7.90625 -10.710938 8.078125 -11.054688 8.199219 -11.371094 C 8.078125 -10.980469 7.882812 -10.566406 7.761719 -10.199219 Z M 9.347656 -9.90625 L 9.25 -9.664062 C 9.25 -9.6875 9.273438 -9.738281 9.273438 -9.785156 Z M 4.074219 -6.6875 C 3.976562 -6.613281 3.90625 -6.515625 3.878906 -6.515625 C 3.929688 -6.515625 4 -6.613281 4.074219 -6.6875 Z M 4.757812 -6.734375 C 4.808594 -6.710938 4.855469 -6.6875 4.90625 -6.636719 Z M 9.589844 -7.175781 C 9.589844 -7.199219 9.613281 -7.222656 9.640625 -7.246094 C 9.613281 -7.199219 9.589844 -7.175781 9.589844 -7.175781 Z M 9.640625 -7.246094 L 9.664062 -7.296875 C 9.664062 -7.273438 9.640625 -7.246094 9.640625 -7.246094 Z M 9.640625 -7.246094 "/></g></g></g><g fill="#5e17eb" fill-opacity="1"><g transform="translate(148.742824, 33.805915)"><g><path d="M 9.347656 -6.027344 C 9.347656 -6.003906 9.347656 -6.003906 9.320312 -6.027344 L 9.320312 -6.050781 C 8.929688 -6.710938 8.417969 -5.808594 8.199219 -5.492188 C 7.785156 -4.929688 7.394531 -4.390625 6.953125 -3.878906 C 6.589844 -3.441406 6.199219 -3 5.90625 -2.539062 C 5.90625 -2.488281 5.855469 -2.367188 5.855469 -2.367188 C 5.757812 -2.21875 5.613281 -2.097656 5.492188 -1.953125 C 5.269531 -1.734375 5.050781 -1.488281 4.808594 -1.269531 C 4.441406 -0.925781 2.390625 1 2.121094 -0.242188 C 1.976562 -0.855469 2.171875 -1.609375 2.292969 -2.195312 C 2.367188 -2.511719 2.441406 -2.804688 2.488281 -3.125 C 2.539062 -3.367188 2.464844 -3.613281 2.585938 -3.855469 C 2.660156 -4 2.683594 -3.976562 2.855469 -4.027344 L 3.269531 -4.171875 C 3.539062 -4.269531 3.808594 -4.367188 4.050781 -4.515625 C 4.417969 -4.734375 4.757812 -5.003906 5.074219 -5.269531 C 5.832031 -5.90625 6.636719 -6.660156 6.953125 -7.613281 C 7.125 -8.148438 7.148438 -8.734375 6.808594 -9.199219 C 6.492188 -9.613281 5.953125 -9.835938 5.464844 -9.933594 C 4.148438 -10.175781 3.148438 -9.417969 2.390625 -8.417969 C 1.464844 -7.273438 0.804688 -5.855469 0.488281 -4.417969 C 0.316406 -3.710938 0.21875 -3 0.0976562 -2.269531 C -0.0234375 -1.539062 -0.0976562 -0.855469 0.292969 -0.171875 C 0.269531 -0.414062 0.21875 -0.632812 0.21875 -0.855469 C 0.21875 -0.976562 0.269531 -1.097656 0.269531 -1.195312 C 0.269531 -1.246094 0.21875 -1.390625 0.21875 -1.464844 C 0.21875 -1.683594 0.269531 -1.855469 0.316406 -2.074219 C 0.339844 -2.292969 0.316406 -2.511719 0.339844 -2.734375 C 0.367188 -2.976562 0.464844 -3.171875 0.5625 -3.390625 C 0.632812 -3.585938 0.660156 -3.757812 0.730469 -3.953125 C 0.804688 -4.125 0.855469 -4.320312 0.925781 -4.515625 C 0.953125 -4.636719 1.074219 -4.78125 1.148438 -4.929688 C 1.074219 -4.710938 0.925781 -4.515625 0.878906 -4.320312 C 0.804688 -4.027344 0.855469 -3.710938 0.828125 -3.417969 C 0.78125 -3.097656 0.683594 -2.78125 0.632812 -2.441406 C 0.585938 -2.121094 0.4375 -1.832031 0.390625 -1.511719 C 0.339844 -1.21875 0.242188 -1 0.269531 -0.707031 C 0.269531 -0.535156 0.292969 -0.367188 0.316406 -0.21875 C 0.339844 -0.0234375 0.464844 0.0976562 0.585938 0.242188 C 1 0.730469 1.5625 1.121094 2.195312 1.292969 C 2.636719 1.414062 3.027344 1.390625 3.441406 1.171875 C 4.027344 0.855469 4.539062 0.367188 4.976562 -0.0976562 C 5.394531 -0.5625 5.710938 -1.074219 6.074219 -1.5625 C 6.417969 -2 6.832031 -2.414062 7.175781 -2.855469 L 8.492188 -4.5625 L 9.25 -5.5625 C 9.371094 -5.710938 9.445312 -5.832031 9.347656 -6.027344 Z M 3.292969 -5.757812 C 3.320312 -5.808594 3.320312 -5.832031 3.320312 -5.832031 C 3.683594 -6.613281 3.953125 -7.441406 4.464844 -8.199219 L 4.90625 -8.785156 C 5.003906 -8.90625 5.171875 -9.125 5.34375 -9.175781 C 5.710938 -9.25 5.808594 -8.613281 5.785156 -8.371094 L 5.6875 -7.859375 C 5.660156 -7.710938 5.710938 -7.613281 5.6875 -7.492188 C 5.636719 -7.34375 5.515625 -7.273438 5.441406 -7.148438 L 5.027344 -6.613281 C 4.464844 -5.953125 3.757812 -5.394531 2.976562 -4.976562 C 3.097656 -5.246094 3.171875 -5.515625 3.292969 -5.757812 Z M 3.292969 -5.757812 "/></g></g></g><g fill="#5e17eb" fill-opacity="1"><g transform="translate(156.3316, 33.805915)"><g><path d="M 9.6875 -5.734375 C 9.613281 -6.074219 9.417969 -6.125 9.175781 -6.027344 C 8.710938 -5.808594 8.246094 -5.320312 7.808594 -5.027344 C 6.808594 -4.390625 5.808594 -3.878906 4.734375 -3.34375 C 4.734375 -3.367188 4.710938 -3.417969 4.683594 -3.488281 C 4.710938 -3.367188 4.683594 -3.320312 4.660156 -3.292969 C 4.417969 -4.34375 4.171875 -5.394531 3.976562 -6.464844 C 4.074219 -6.003906 4.292969 -5.222656 4.464844 -4.5625 C 4.246094 -5.589844 3.976562 -6.855469 4 -6.855469 C 3.953125 -6.832031 3.953125 -6.785156 3.953125 -6.734375 C 3.90625 -7.027344 3.832031 -7.394531 3.878906 -7.710938 C 3.90625 -8.078125 4.097656 -8.394531 4.222656 -8.734375 C 4.195312 -8.566406 4.148438 -8.34375 4.148438 -8.34375 C 4.292969 -8.320312 4.390625 -9.222656 4.390625 -9.320312 C 4.367188 -9.46875 4.050781 -9.933594 4.050781 -9.808594 C 3.390625 -10.417969 2.097656 -9.078125 1.902344 -8.492188 C 1.757812 -8.101562 1.757812 -7.6875 1.78125 -7.273438 C 1.804688 -6.855469 1.929688 -6.492188 2.050781 -6.101562 C 2.121094 -5.808594 2.023438 -5.613281 2.050781 -5.296875 C 2.097656 -4.808594 2.269531 -4.320312 2.367188 -3.855469 C 2.464844 -3.488281 2.78125 -2.757812 2.707031 -2.414062 C 2.660156 -2.074219 1.929688 -1.78125 1.609375 -1.585938 C 1.195312 -1.316406 0.78125 -1 0.367188 -0.683594 C -0.367188 -0.121094 -1.148438 0.585938 -1.441406 1.488281 C -1.488281 1.609375 -1.660156 2.148438 -1.488281 2.246094 C -1.464844 2.269531 -1.390625 1.855469 -1.367188 1.804688 C -1.683594 3.417969 -0.0976562 4.195312 1.390625 4.222656 C 3.074219 4.269531 4.246094 3.292969 4.832031 1.78125 C 5.074219 1.121094 5.148438 0.4375 5.125 -0.242188 C 5.125 -0.707031 5.074219 -1.148438 5.003906 -1.585938 C 4.953125 -1.976562 4.90625 -1.953125 5.171875 -2.171875 C 5.367188 -2.316406 5.660156 -2.414062 5.855469 -2.511719 C 6.636719 -2.929688 7.34375 -3.417969 8.050781 -3.929688 C 8.566406 -4.292969 9.785156 -4.929688 9.6875 -5.710938 Z M -0.171875 2.660156 C -0.804688 2.464844 -0.171875 1.464844 0.046875 1.148438 C 0.414062 0.660156 0.953125 0.292969 1.441406 -0.046875 L 2.171875 -0.535156 C 2.246094 -0.585938 2.707031 -0.953125 2.5625 -0.902344 L 2.855469 -1.074219 L 2.683594 -0.925781 C 2.734375 -0.953125 2.804688 -0.976562 2.855469 -1.023438 C 2.878906 -0.4375 2.878906 0.144531 2.707031 0.730469 C 2.683594 0.828125 2.21875 1.804688 2.023438 2 L 2.148438 1.902344 C 1.929688 2.171875 1.683594 2.390625 1.390625 2.5625 C 1.390625 2.539062 1.609375 2.390625 1.585938 2.367188 L 0.902344 2.636719 C 0.5625 2.707031 0.171875 2.78125 -0.171875 2.660156 Z M 2.902344 3.367188 C 2.269531 3.636719 1.660156 3.757812 1 3.78125 C 2.195312 3.710938 3.441406 3.125 4.148438 2.121094 C 3.878906 2.660156 3.539062 3.074219 2.902344 3.367188 Z M 4.683594 -3.5625 C 4.660156 -3.734375 4.613281 -3.976562 4.539062 -4.246094 C 4.585938 -3.976562 4.636719 -3.710938 4.683594 -3.5625 Z M 5.003906 -1.023438 C 4.976562 -1.050781 4.976562 -1.097656 4.976562 -1.148438 C 4.976562 -1.097656 5.003906 -1.050781 5.003906 -1.023438 Z M 5.003906 -1.023438 "/></g></g></g><g fill="#5e17eb" fill-opacity="1"><g transform="translate(164.2376, 33.805915)"><g><path d="M 6.394531 -6.003906 C 6.34375 -6.320312 6.003906 -6.222656 5.832031 -6.101562 C 5.613281 -5.953125 4.390625 -4.34375 4.488281 -4.222656 C 4.5625 -4.222656 4.613281 -4.222656 4.660156 -4.269531 C 4.320312 -3.855469 3.683594 -3.390625 3.222656 -3.027344 C 2.953125 -2.804688 2.292969 -2.195312 1.902344 -2.390625 C 1.074219 -2.804688 2.757812 -5.734375 2.683594 -5.757812 C 2.609375 -5.785156 2 -4.417969 1.878906 -4.097656 C 2.171875 -4.953125 2.5625 -5.808594 3.027344 -6.5625 C 3 -6.492188 2.929688 -6.367188 2.976562 -6.367188 C 3.027344 -6.34375 3.390625 -6.855469 3.320312 -6.90625 C 3.292969 -6.90625 3.246094 -6.90625 3.222656 -6.882812 C 3.292969 -6.953125 3.417969 -6.980469 3.417969 -7.125 C 3.417969 -7.371094 2.855469 -7.613281 2.660156 -7.6875 C 2.195312 -7.882812 1.734375 -7.929688 1.367188 -7.6875 C 0.878906 -7.394531 0.78125 -6.808594 0.585938 -6.296875 C 0.535156 -6.148438 0.0742188 -4.417969 0.171875 -4.390625 C 0.21875 -4.417969 0.21875 -4.441406 0.242188 -4.488281 L 0.171875 -4.050781 C 0.144531 -4.050781 0.195312 -4.171875 0.144531 -4.171875 C -0.046875 -4.171875 0 -3.292969 0.0234375 -3.171875 C 0.121094 -2.734375 0.464844 -2.414062 0.730469 -2.050781 C 0.878906 -1.832031 1.023438 -1.609375 1.246094 -1.464844 C 1.539062 -1.246094 1.34375 -1.464844 1.539062 -1.367188 L 1.488281 -1.367188 C 1.464844 -1.21875 2.390625 -0.976562 2.585938 -1 C 3.441406 -1.195312 4.050781 -2.246094 4.539062 -2.902344 C 5.003906 -3.488281 5.394531 -4.074219 5.808594 -4.683594 C 6.050781 -5.003906 6.492188 -5.539062 6.394531 -6.003906 Z M 2.121094 -9.078125 C 2.171875 -9.003906 2.097656 -8.90625 2.269531 -8.808594 C 2.441406 -8.734375 2.539062 -8.832031 2.683594 -8.882812 C 2.976562 -9.003906 3.195312 -9.320312 3.417969 -9.515625 C 3.488281 -9.566406 3.34375 -9.542969 3.34375 -9.542969 C 3.660156 -9.835938 3.390625 -9.492188 3.683594 -9.664062 C 3.976562 -9.859375 4.027344 -10.175781 4.269531 -10.445312 C 3.976562 -10.320312 3.757812 -10.152344 3.5625 -9.90625 C 3.320312 -9.589844 3.148438 -9.445312 2.878906 -9.273438 C 3.171875 -9.492188 3.320312 -9.710938 3.5625 -10.101562 C 3.636719 -10.175781 3.710938 -10.222656 3.808594 -10.273438 C 3.734375 -10.347656 3.734375 -10.417969 3.832031 -10.492188 C 3.90625 -10.613281 4.050781 -10.664062 4.125 -10.785156 C 4.246094 -10.957031 4.222656 -11.175781 4.367188 -11.347656 C 4.488281 -11.445312 4.660156 -11.519531 4.757812 -11.617188 C 4.976562 -11.8125 5.222656 -12.175781 5.125 -12.492188 C 5.027344 -12.785156 4.78125 -13.152344 4.515625 -13.324219 C 4.195312 -13.496094 3.757812 -13.566406 3.417969 -13.421875 C 3.34375 -13.398438 3.050781 -13.324219 3.148438 -13.226562 C 3.171875 -13.175781 3.195312 -13.175781 3.246094 -13.175781 C 3.027344 -13.007812 2.660156 -12.714844 3.171875 -12.519531 C 3.125 -12.46875 3.171875 -12.25 3.171875 -12.226562 C 3.148438 -12.054688 2.804688 -11.152344 2.585938 -10.710938 L 2.878906 -11.152344 C 2.707031 -10.785156 2.511719 -10.445312 2.292969 -10.152344 C 2.441406 -10.46875 2.148438 -10.101562 2.148438 -10.027344 C 1.878906 -10.152344 1.953125 -9.394531 1.976562 -9.320312 C 1.976562 -9.296875 2.121094 -9.078125 2.121094 -9.078125 Z M 1.660156 -3.269531 L 1.660156 -3.246094 L 1.609375 -3.097656 L 1.660156 -3.292969 C 1.683594 -3.320312 1.683594 -3.320312 1.660156 -3.269531 Z M 2.464844 -10.515625 C 2.464844 -10.515625 2.511719 -10.566406 2.5625 -10.664062 Z M 2.21875 -10.054688 C 2.21875 -10.027344 2.21875 -10.027344 2.195312 -10.003906 C 2.195312 -10.003906 2.195312 -10.027344 2.171875 -10.027344 C 2.195312 -10.027344 2.195312 -10.027344 2.21875 -10.054688 Z M 2.21875 -10.054688 "/></g></g></g><g fill="#5e17eb" fill-opacity="1"><g transform="translate(168.849429, 33.805915)"><g><path d="M 12.445312 -5.855469 C 12.347656 -6.5625 11.640625 -5.855469 11.421875 -5.660156 C 11.003906 -5.34375 10.566406 -5.074219 10.152344 -4.757812 C 9.589844 -4.367188 9.054688 -3.929688 8.515625 -3.488281 C 8.296875 -3.320312 6.953125 -2.074219 6.832031 -2.148438 C 7.222656 -3.367188 7.90625 -4.585938 8.566406 -5.734375 C 9.175781 -6.757812 7.929688 -7.636719 6.929688 -7.199219 C 6.636719 -7.078125 6.320312 -6.539062 6.125 -6.269531 C 5.660156 -5.613281 5.222656 -4.90625 4.757812 -4.246094 L 4.097656 -3.246094 C 4.027344 -3.148438 3.5625 -2.464844 3.636719 -2.464844 C 3.660156 -2.464844 3.683594 -2.488281 3.710938 -2.511719 C 3.222656 -1.855469 2.511719 -1.023438 1.878906 -0.5625 C 1 0.121094 1.511719 -1.929688 1.636719 -2.269531 C 2 -3.367188 2.609375 -4.417969 3.269531 -5.367188 C 3.367188 -5.515625 4.710938 -7.222656 5.148438 -7.636719 C 4.710938 -7.273438 3.390625 -5.636719 3.171875 -5.367188 C 3.953125 -6.492188 5.199219 -8.273438 6.660156 -8.515625 L 6.34375 -8.394531 C 6.636719 -8.441406 7.296875 -8.417969 7.296875 -8.417969 L 7.222656 -8.492188 C 7.34375 -8.417969 7.417969 -8.320312 7.566406 -8.320312 C 8.175781 -8.34375 8.027344 -9.320312 7.761719 -9.613281 C 7.394531 -10.101562 6.515625 -10.296875 5.929688 -10.152344 C 5.757812 -10.101562 5.6875 -10.003906 5.492188 -9.980469 C 5.269531 -9.933594 5.101562 -9.980469 4.832031 -9.835938 C 4.34375 -9.589844 3.929688 -9.25 3.539062 -8.859375 C 3.292969 -8.636719 0.953125 -6.125 1.121094 -6.027344 C 1.171875 -6.027344 1.21875 -6.074219 1.246094 -6.101562 L 0.828125 -5.492188 C 0.804688 -5.515625 0.925781 -5.6875 0.902344 -5.6875 C 0.804688 -5.734375 0.316406 -4.929688 0.292969 -4.855469 C 0.046875 -4.464844 -0.144531 -4.027344 -0.21875 -3.5625 C -0.316406 -3.050781 -0.339844 -2.488281 -0.339844 -1.976562 C -0.339844 -1.636719 -0.316406 -1.292969 -0.21875 -0.976562 C -0.195312 -0.925781 0.0976562 -0.367188 0.046875 -0.609375 L 0.121094 -0.4375 C 0.0976562 -0.4375 0.0742188 -0.464844 0.046875 -0.488281 C -0.046875 -0.316406 0.878906 0.511719 1.050781 0.585938 C 1.414062 0.757812 1.757812 0.660156 2.121094 0.4375 C 2.929688 -0.046875 3.488281 -0.976562 4.050781 -1.757812 C 4.660156 -2.585938 5.34375 -3.441406 5.855469 -4.367188 L 5.320312 -2.464844 C 5.101562 -1.757812 4.976562 -0.707031 4.539062 -0.144531 C 4.074219 0.414062 3.390625 0.902344 2.878906 1.390625 C 2.34375 1.878906 1.804688 2.367188 1.316406 2.929688 C 0.609375 3.734375 -0.046875 4.613281 -0.660156 5.492188 C -1.367188 6.515625 -1.855469 7.613281 -1.367188 8.808594 C -0.925781 9.859375 0.0742188 10.835938 1.292969 10.542969 C 2.34375 10.273438 2.734375 9.394531 3.195312 8.566406 C 4.660156 6.027344 5.394531 3.097656 6.222656 0.292969 C 6.34375 -0.121094 6.417969 -0.535156 6.710938 -0.855469 C 7.003906 -1.148438 7.371094 -1.414062 7.710938 -1.683594 C 8.394531 -2.292969 9.101562 -2.855469 9.835938 -3.441406 L 11.8125 -4.953125 C 12.128906 -5.199219 12.542969 -5.394531 12.445312 -5.855469 Z M 3.808594 2.441406 C 3.808594 2.414062 3.683594 2.757812 3.710938 2.707031 C 3.195312 4.195312 2.707031 5.6875 2.023438 7.101562 C 1.683594 7.808594 0.0742188 10.738281 -0.511719 8.589844 C -0.902344 7.222656 0.414062 5.660156 1.171875 4.660156 C 2.097656 3.464844 3.050781 2.390625 4.148438 1.367188 C 4.050781 1.734375 3.929688 2.097656 3.808594 2.441406 Z M 3.710938 4.148438 C 3.5625 4.683594 3.390625 5.222656 3.171875 5.734375 C 2.953125 6.148438 2.660156 6.515625 2.441406 6.90625 C 2.878906 5.953125 3.34375 5.050781 3.710938 4.074219 Z M 2.488281 -4.878906 C 2.34375 -4.613281 2.121094 -4.367188 1.929688 -4.097656 C 2.121094 -4.539062 2.316406 -4.929688 2.683594 -5.320312 C 2.757812 -5.394531 2.878906 -5.515625 2.953125 -5.636719 Z M 2.464844 -4.246094 L 2.246094 -3.929688 C 2.390625 -4.195312 2.5625 -4.464844 2.757812 -4.734375 Z M 2.464844 -4.246094 "/></g></g></g><g fill="#5e17eb" fill-opacity="1"><g transform="translate(179.512762, 33.805915)"><g><path d="M 10.101562 -5.808594 C 9.980469 -6.394531 9.640625 -6.003906 9.492188 -5.785156 C 9.152344 -5.367188 8.613281 -4.976562 8.199219 -4.585938 C 7.636719 -4.097656 7.078125 -3.585938 6.492188 -3.125 C 6.199219 -2.878906 5.832031 -2.539062 5.464844 -2.414062 C 5.417969 -2.390625 5.246094 -2.367188 5.246094 -2.34375 L 5.222656 -2.367188 C 5.222656 -2.367188 5.199219 -2.757812 5.222656 -2.78125 C 5.246094 -3.097656 5.34375 -3.417969 5.441406 -3.710938 C 5.464844 -3.757812 5.734375 -4.585938 5.6875 -4.585938 L 5.5625 -4.441406 C 5.710938 -4.734375 5.90625 -5.027344 6.074219 -5.34375 C 5.6875 -4.976562 5.417969 -4.5625 5.222656 -4.050781 C 5.125 -3.808594 4.855469 -3.367188 4.808594 -3 C 4.855469 -3.539062 5.222656 -4.246094 5.394531 -4.5625 C 5.636719 -5.074219 5.90625 -5.660156 6.222656 -6.148438 C 6.808594 -7.027344 8.078125 -7.832031 7.6875 -9.054688 C 7.34375 -10.199219 6.441406 -10.222656 5.734375 -9.566406 C 5.394531 -9.25 2.488281 -5.539062 2.5625 -5.492188 C 2.5625 -5.492188 2.804688 -5.785156 3.125 -6.199219 L 1.683594 -4.097656 C 1.660156 -4.097656 1.929688 -4.515625 1.902344 -4.539062 C 1.878906 -4.5625 1.707031 -4.390625 1.683594 -4.292969 C 1.734375 -4.808594 1.902344 -5.320312 1.953125 -5.832031 C 1.976562 -6.027344 1.953125 -6.171875 2 -6.367188 C 2.097656 -6.6875 2.195312 -7.027344 2.34375 -7.296875 C 2.441406 -7.492188 2.636719 -7.664062 2.683594 -7.859375 C 2.78125 -8.175781 2.757812 -8.296875 2.976562 -8.566406 C 3.171875 -8.808594 3.464844 -9.054688 3.636719 -9.273438 C 4.050781 -9.882812 3.34375 -10.296875 2.953125 -10.371094 C 2.636719 -10.417969 2.316406 -10.445312 2.023438 -10.273438 C 1.707031 -10.078125 1.78125 -9.90625 1.707031 -9.640625 C 1.636719 -9.296875 1.390625 -8.90625 1.269531 -8.589844 C 1.074219 -8.078125 0.902344 -7.566406 0.730469 -7.050781 C 0.535156 -6.539062 0.339844 -6.050781 0.195312 -5.539062 C 0.0742188 -5.125 0.0976562 -4.734375 0.046875 -4.34375 C 0 -3.90625 -0.0742188 -3.613281 0.144531 -3.222656 C 0.390625 -2.804688 1.050781 -2.171875 1.488281 -2.707031 L 1.585938 -2.511719 C 2 -3.417969 2.636719 -4.222656 3.148438 -5.101562 C 3.367188 -5.492188 3.757812 -5.757812 4.074219 -6.171875 C 4.515625 -6.757812 4.90625 -7.34375 5.394531 -7.90625 C 5.320312 -7.785156 5.003906 -7.222656 5.027344 -7.199219 C 5.074219 -7.222656 5.101562 -7.273438 5.148438 -7.320312 L 4.808594 -6.636719 C 4.78125 -6.660156 4.90625 -6.832031 4.855469 -6.832031 C 4.683594 -6.882812 4.171875 -5.515625 4.125 -5.394531 C 3.953125 -4.855469 3.929688 -4.367188 3.878906 -3.808594 C 3.855469 -3.539062 3.808594 -3.269531 3.808594 -3 C 3.808594 -2.734375 3.832031 -2.464844 3.953125 -2.195312 C 4.027344 -2.050781 4.125 -1.855469 4.246094 -1.734375 C 4.269531 -1.734375 4.539062 -1.488281 4.417969 -1.683594 L 4.5625 -1.539062 L 4.488281 -1.585938 C 4.464844 -1.464844 5.367188 -0.976562 5.515625 -0.925781 C 6.199219 -0.707031 6.929688 -1.488281 7.371094 -1.953125 C 7.957031 -2.585938 8.441406 -3.320312 8.980469 -4 C 9.273438 -4.390625 10.199219 -5.222656 10.101562 -5.808594 Z M 10.101562 -5.808594 "/></g></g></g></svg>